<svg height="2302" width="720" xmlns="http://www.w3.org/2000/svg">
<rect height="2302" fill="#555" width="720"></rect>
<text fill="#7f7" font-family="Courier New" font-size="12" xml:space="preserve">
<tspan x="10" y="26"></tspan>
<tspan x="10" y="42">&gt; npmdoc-coffee-script@0.0.2 test /home/travis/build/npmdoc/node-npmdoc-coffee-script</tspan>
<tspan x="10" y="58">&gt; (set -e; export PORT=$(utility2 shServerPortRandom); utility2 test test.js)</tspan>
<tspan x="10" y="74"></tspan>
<tspan x="10" y="90"></tspan>
<tspan x="10" y="106">[MODE_BUILD=npmTest] - 2017-03-25T12:12:11Z - npm-testing /home/travis/build/npmdoc/node-npmdoc-\</tspan>
<tspan x="10" y="122">coffee-script</tspan>
<tspan x="10" y="138"></tspan>
<tspan x="10" y="154"></tspan>
<tspan x="10" y="170">covering $ /home/travis/.nvm/versions/node/v7.7.4/bin/node /home/travis/build/npmdoc/node-npmdoc\</tspan>
<tspan x="10" y="186">-coffee-script/test.js</tspan>
<tspan x="10" y="202">merging file:///home/travis/build/npmdoc/node-npmdoc-coffee-script/tmp/build/test-report.json to\</tspan>
<tspan x="10" y="218"> test-report</tspan>
<tspan x="10" y="234">&gt; server listening on http-port 40192</tspan>
<tspan x="10" y="250">created apidoc file:///home/travis/build/npmdoc/node-npmdoc-coffee-script/tmp/build/apidoc.html</tspan>
<tspan x="10" y="266"></tspan>
<tspan x="10" y="282"></tspan>
<tspan x="10" y="298">browserTest - created electron entry-page /home/travis/build/npmdoc/node-npmdoc-coffee-script/tm\</tspan>
<tspan x="10" y="314">p/electron.15b056192b40.a534b2ad01504.html</tspan>
<tspan x="10" y="330"></tspan>
<tspan x="10" y="346">[node test-case 1 of 6 passed] - testCase_buildLib_default</tspan>
<tspan x="10" y="362">[node test-case 2 of 6 passed] - testCase_buildReadme_default</tspan>
<tspan x="10" y="378">[node test-case 3 of 6 passed] - testCase_buildTest_default</tspan>
<tspan x="10" y="394"></tspan>
<tspan x="10" y="410">browserTest - created electron entry-page /home/travis/build/npmdoc/node-npmdoc-coffee-script/tm\</tspan>
<tspan x="10" y="426">p/electron.15b056192f30.151edd090a1c.html</tspan>
<tspan x="10" y="442"></tspan>
<tspan x="10" y="458">(node:5004) DeprecationWarning: node --debug is deprecated. Please use node --inspect instead.</tspan>
<tspan x="10" y="474">Xlib:  extension "RANDR" missing on display ":99.0".</tspan>
<tspan x="10" y="490">Xlib:  extension "RANDR" missing on display ":99.0".</tspan>
<tspan x="10" y="506">&gt; server listening on http-port 49409</tspan>
<tspan x="10" y="522"></tspan>
<tspan x="10" y="538">/home/travis/build/npmdoc/node-npmdoc-coffee-script/node_modules/utility2/lib.utility2.sh.html.j\</tspan>
<tspan x="10" y="554">s</tspan>
<tspan x="10" y="570"> #1 Line too long.</tspan>
<tspan x="10" y="586">    process.stdout.write('export npm_package_' + key.replace((/\W/g), '_') + '=' + JSON.stringif\</tspan>
<tspan x="10" y="602">y(value) + ';'); // Line 1445, Pos 116</tspan>
<tspan x="10" y="618"></tspan>
<tspan x="10" y="634">merging file:///home/travis/build/npmdoc/node-npmdoc-coffee-script/tmp/build/test-report.json to\</tspan>
<tspan x="10" y="650"> test-report</tspan>
<tspan x="10" y="666">Xlib:  extension "RANDR" missing on display ":99.0".</tspan>
<tspan x="10" y="682">[5036:0325/121213:WARNING:audio_manager.cc(314)] Multiple instances of AudioManager detected</tspan>
<tspan x="10" y="698">[5036:0325/121213:WARNING:audio_manager.cc(275)] Multiple instances of AudioManager detected</tspan>
<tspan x="10" y="714">[5065:0325/121213:ERROR:sandbox_linux.cc(343)] InitializeSandbox() called with multiple threads \</tspan>
<tspan x="10" y="730">in process gpu-process. </tspan>
<tspan x="10" y="746"></tspan>
<tspan x="10" y="762">/home/travis/build/npmdoc/node-npmdoc-coffee-script/node_modules/utility2/lib.utility2.sh.html.j\</tspan>
<tspan x="10" y="778">s</tspan>
<tspan x="10" y="794"> #1 Line too long.</tspan>
<tspan x="10" y="810">    process.stdout.write('export npm_package_' + key.replace((/\W/g), '_') + '=' + JSON.stringif\</tspan>
<tspan x="10" y="826">y(value) + ';'); // Line 1445, Pos 116</tspan>
<tspan x="10" y="842"></tspan>
<tspan x="10" y="858">merging file:///home/travis/build/npmdoc/node-npmdoc-coffee-script/tmp/build/test-report.json to\</tspan>
<tspan x="10" y="874"> test-report</tspan>
<tspan x="10" y="890">Xlib:  extension "RANDR" missing on display ":99.0".</tspan>
<tspan x="10" y="906">[5034:0325/121213:WARNING:audio_manager.cc(314)] Multiple instances of AudioManager detected</tspan>
<tspan x="10" y="922">[5034:0325/121213:WARNING:audio_manager.cc(275)] Multiple instances of AudioManager detected</tspan>
<tspan x="10" y="938">[5095:0325/121213:ERROR:sandbox_linux.cc(343)] InitializeSandbox() called with multiple threads \</tspan>
<tspan x="10" y="954">in process gpu-process. </tspan>
<tspan x="10" y="970">[5034:0325/121213:ERROR:browser_gpu_channel_host_factory.cc(131)] Failed to create channel.</tspan>
<tspan x="10" y="986"></tspan>
<tspan x="10" y="1002">browserTest - opened url http://127.0.0.1:40192?modeTest=1</tspan>
<tspan x="10" y="1018"></tspan>
<tspan x="10" y="1034"></tspan>
<tspan x="10" y="1050">browserTest - opened url file:///home/travis/build/npmdoc/node-npmdoc-coffee-script/tmp/build/ap\</tspan>
<tspan x="10" y="1066">idoc.html</tspan>
<tspan x="10" y="1082"></tspan>
<tspan x="10" y="1098">[5036:0325/121214:INFO:CONSOLE(203)] "----------|-----------|-----------|-----------|-----------\</tspan>
<tspan x="10" y="1114">|</tspan>
<tspan x="10" y="1130">File      |   % Stmts |% Branches |   % Funcs |   % Lines |</tspan>
<tspan x="10" y="1146">----------|-----------|-----------|-----------|-----------|</tspan>
<tspan x="10" y="1162">----------|-----------|-----------|-----------|-----------|</tspan>
<tspan x="10" y="1178">All files |       100 |       100 |       100 |       100 |</tspan>
<tspan x="10" y="1194">----------|-----------|-----------|-----------|-----------|</tspan>
<tspan x="10" y="1210">", source: file:///home/travis/build/npmdoc/node-npmdoc-coffee-script/tmp/electron.15b056192f30.\</tspan>
<tspan x="10" y="1226">151edd090a1c.html (203)</tspan>
<tspan x="10" y="1242">[5036:0325/121214:INFO:CONSOLE(203)] "created coverage file:///tmp/build/coverage.html/index.htm\</tspan>
<tspan x="10" y="1258">l", source: file:///home/travis/build/npmdoc/node-npmdoc-coffee-script/tmp/electron.15b056192f30\</tspan>
<tspan x="10" y="1274">.151edd090a1c.html (203)</tspan>
<tspan x="10" y="1290">[node test-case 4 of 6 passed] - testCase_buildApp_default</tspan>
<tspan x="10" y="1306"></tspan>
<tspan x="10" y="1322">browserTest - created screen-capture file:///home/travis/build/npmdoc/node-npmdoc-coffee-script/\</tspan>
<tspan x="10" y="1338">tmp/build/screen-capture.npmTest.browser..png</tspan>
<tspan x="10" y="1354"></tspan>
<tspan x="10" y="1370"></tspan>
<tspan x="10" y="1386">browserTest - exit-code 0 - http://127.0.0.1:40192?modeTest=1</tspan>
<tspan x="10" y="1402"></tspan>
<tspan x="10" y="1418"></tspan>
<tspan x="10" y="1434">browserTest - merged coverage from /home/travis/build/npmdoc/node-npmdoc-coffee-script/tmp/cover\</tspan>
<tspan x="10" y="1450">age.npmTest.browser.%2F.json</tspan>
<tspan x="10" y="1466"></tspan>
<tspan x="10" y="1482"></tspan>
<tspan x="10" y="1498">browserTest - merging test-report from /home/travis/build/npmdoc/node-npmdoc-coffee-script/tmp/t\</tspan>
<tspan x="10" y="1514">est-report.npmTest.browser.%2F.json</tspan>
<tspan x="10" y="1530"></tspan>
<tspan x="10" y="1546">[node test-case 5 of 6 passed] - testCase_webpage_default</tspan>
<tspan x="10" y="1562"></tspan>
<tspan x="10" y="1578">browserTest - created screen-capture file:///home/travis/build/npmdoc/node-npmdoc-coffee-script/\</tspan>
<tspan x="10" y="1594">tmp/build/screen-capture.npmTest.browser._2Fhome_2Ftravis_2Fbuild_2Fnpmdoc_2Fnode-npmdoc-coffee-\</tspan>
<tspan x="10" y="1610">script_2Ftmp_2Fbuild_2Fapidoc.html.png</tspan>
<tspan x="10" y="1626"></tspan>
<tspan x="10" y="1642"></tspan>
<tspan x="10" y="1658">browserTest - exit-code 0 - file:///home/travis/build/npmdoc/node-npmdoc-coffee-script/tmp/build\</tspan>
<tspan x="10" y="1674">/apidoc.html</tspan>
<tspan x="10" y="1690"></tspan>
<tspan x="10" y="1706">[node test-case 6 of 6 passed] - testCase_buildApidoc_default</tspan>
<tspan x="10" y="1722">----------------------------------|-----------|-----------|-----------|-----------|</tspan>
<tspan x="10" y="1738">File                              |   % Stmts |% Branches |   % Funcs |   % Lines |</tspan>
<tspan x="10" y="1754">----------------------------------|-----------|-----------|-----------|-----------|</tspan>
<tspan x="10" y="1770">   node-npmdoc-coffee-script/     |       100 |       100 |       100 |       100 |</tspan>
<tspan x="10" y="1786">      example.js                  |       100 |       100 |       100 |       100 |</tspan>
<tspan x="10" y="1802">      lib.npmdoc_coffee_script.js |       100 |       100 |       100 |       100 |</tspan>
<tspan x="10" y="1818">      test.js                     |       100 |       100 |       100 |       100 |</tspan>
<tspan x="10" y="1834">----------------------------------|-----------|-----------|-----------|-----------|</tspan>
<tspan x="10" y="1850">All files                         |       100 |       100 |       100 |       100 |</tspan>
<tspan x="10" y="1866">----------------------------------|-----------|-----------|-----------|-----------|</tspan>
<tspan x="10" y="1882"></tspan>
<tspan x="10" y="1898">created coverage file:///home/travis/build/npmdoc/node-npmdoc-coffee-script/tmp/build/coverage.h\</tspan>
<tspan x="10" y="1914">tml/index.html</tspan>
<tspan x="10" y="1930"></tspan>
<tspan x="10" y="1946">/home/travis/build/npmdoc/node-npmdoc-coffee-script/node_modules/utility2/lib.utility2.sh.html.j\</tspan>
<tspan x="10" y="1962">s</tspan>
<tspan x="10" y="1978"> #1 Line too long.</tspan>
<tspan x="10" y="1994">    process.stdout.write('export npm_package_' + key.replace((/\W/g), '_') + '=' + JSON.stringif\</tspan>
<tspan x="10" y="2010">y(value) + ';'); // Line 1445, Pos 116</tspan>
<tspan x="10" y="2026"></tspan>
<tspan x="10" y="2042">merging file:///home/travis/build/npmdoc/node-npmdoc-coffee-script/tmp/build/test-report.json to\</tspan>
<tspan x="10" y="2058"> test-report</tspan>
<tspan x="10" y="2074"></tspan>
<tspan x="10" y="2090">-------------------------------------------------------</tspan>
<tspan x="10" y="2106">| test-report - buildNpmdoc - node - linux v7.7.4 - 2017-03-25T12:11:44.551Z</tspan>
<tspan x="10" y="2122">|   32757 ms            0 failed        6 passed      |</tspan>
<tspan x="10" y="2138">-------------------------------------------------------</tspan>
<tspan x="10" y="2154"></tspan>
<tspan x="10" y="2170">created test-report file:///home/travis/build/npmdoc/node-npmdoc-coffee-script/tmp/build/test-re\</tspan>
<tspan x="10" y="2186">port.html</tspan>
<tspan x="10" y="2202"></tspan>
<tspan x="10" y="2218"></tspan>
<tspan x="10" y="2234">npmTest - 0 failed tests</tspan>
<tspan x="10" y="2250"></tspan>
<tspan x="10" y="2266"></tspan>
<tspan x="10" y="2282">[MODE_BUILD=npmTest] - 2017-03-25T12:12:20Z - EXIT_CODE - 0</tspan>
</text>
</svg>
